<svg xmlns="http://www.w3.org/2000/svg" xmlns:xlink="http://www.w3.org/1999/xlink" width="108" height="108" viewBox="0 0 108 108">
  <defs>
    <filter id="Trazado_904820" x="0" y="0" width="108" height="108" filterUnits="userSpaceOnUse">
      <feOffset dy="3" input="SourceAlpha"/>
      <feGaussianBlur stdDeviation="3" result="blur"/>
      <feFlood flood-opacity="0.161"/>
      <feComposite operator="in" in2="blur"/>
      <feComposite in="SourceGraphic"/>
    </filter>
  </defs>
  <g id="Grupo_1144152" data-name="Grupo 1144152" transform="translate(-201 -1948)">
    <g transform="matrix(1, 0, 0, 1, 201, 1948)" filter="url(#Trazado_904820)">
      <g id="Trazado_904820-2" data-name="Trazado 904820" transform="translate(9 6)" fill="#ecf4fa">
        <path d="M 45 88.5 C 39.12687683105469 88.5 33.43022537231445 87.35007476806641 28.06830024719238 85.08217620849609 C 22.88852500915527 82.89131164550781 18.23629951477051 79.75458526611328 14.2408504486084 75.75914764404297 C 10.24541282653809 71.76370239257812 7.108687400817871 67.11147308349609 4.917825222015381 61.93170166015625 C 2.649924993515015 56.56977462768555 1.5 50.87312316894531 1.5 45 C 1.5 39.12687683105469 2.649924993515015 33.43022537231445 4.917825222015381 28.06830024719238 C 7.108687400817871 22.88852500915527 10.24541282653809 18.23629951477051 14.2408504486084 14.2408504486084 C 18.23629951477051 10.24541282653809 22.88852500915527 7.108687400817871 28.06830024719238 4.917825222015381 C 33.43022537231445 2.649924993515015 39.12687683105469 1.5 45 1.5 C 50.87312316894531 1.5 56.56977462768555 2.649924993515015 61.93170166015625 4.917825222015381 C 67.11147308349609 7.108687400817871 71.76370239257812 10.24541282653809 75.75914764404297 14.2408504486084 C 79.75458526611328 18.23629951477051 82.89131164550781 22.88852500915527 85.08217620849609 28.06830024719238 C 87.35007476806641 33.43022537231445 88.5 39.12687683105469 88.5 45 C 88.5 50.87312316894531 87.35007476806641 56.56977462768555 85.08217620849609 61.93170166015625 C 82.89131164550781 67.11147308349609 79.75458526611328 71.76370239257812 75.75914764404297 75.75914764404297 C 71.76370239257812 79.75458526611328 67.11147308349609 82.89131164550781 61.93170166015625 85.08217620849609 C 56.56977462768555 87.35007476806641 50.87312316894531 88.5 45 88.5 Z" stroke="none"/>
        <path d="M 45 3 C 39.32871246337891 3 33.82865524291992 4.110054016113281 28.65262985229492 6.299339294433594 C 23.65165710449219 8.414573669433594 19.15968322753906 11.44334411621094 15.301513671875 15.301513671875 C 11.44334411621094 19.15968322753906 8.414573669433594 23.65165710449219 6.299339294433594 28.65262985229492 C 4.110054016113281 33.82865524291992 3 39.32871246337891 3 45 C 3 50.67128753662109 4.110054016113281 56.17134475708008 6.299339294433594 61.34737396240234 C 8.414573669433594 66.34834289550781 11.44334411621094 70.84031677246094 15.301513671875 74.698486328125 C 19.15968322753906 78.55665588378906 23.65165710449219 81.58542633056641 28.65262985229492 83.70066070556641 C 33.82865524291992 85.88994598388672 39.32871246337891 87 45 87 C 50.67128753662109 87 56.17134475708008 85.88994598388672 61.34737396240234 83.70066070556641 C 66.34834289550781 81.58542633056641 70.84031677246094 78.55665588378906 74.698486328125 74.698486328125 C 78.55665588378906 70.84031677246094 81.58542633056641 66.34834289550781 83.70066070556641 61.34737396240234 C 85.88994598388672 56.17134475708008 87 50.67128753662109 87 45 C 87 39.32871246337891 85.88994598388672 33.82865524291992 83.70066070556641 28.65262985229492 C 81.58542633056641 23.65165710449219 78.55665588378906 19.15968322753906 74.698486328125 15.301513671875 C 70.84031677246094 11.44334411621094 66.34834289550781 8.414573669433594 61.34737396240234 6.299339294433594 C 56.17134475708008 4.110054016113281 50.67128753662109 3 45 3 M 45 0 C 69.85281372070312 0 90 20.14718627929688 90 45 C 90 69.85281372070312 69.85281372070312 90 45 90 C 20.14718627929688 90 0 69.85281372070312 0 45 C 0 20.14718627929688 20.14718627929688 0 45 0 Z" stroke="none" fill="#2a5673"/>
      </g>
    </g>
    <g id="Grupo_1144151" data-name="Grupo 1144151" transform="translate(211.988 1929.972)">
      <g id="Grupo_1144150" data-name="Grupo 1144150" transform="translate(14.15 46.83)">
        <path id="Trazado_979028" data-name="Trazado 979028" d="M366.627,174.3v16.427h-4.708a4.107,4.107,0,0,1,.607,2.165,4.193,4.193,0,1,1-8.385,0,4.106,4.106,0,0,1,.607-2.165H350.2v-5.716a3.016,3.016,0,0,0,1.329.3,3.082,3.082,0,1,0-1.329-5.865V174.3Z" transform="translate(-312.191 -160.17)" fill="#cecbe6" fill-rule="evenodd"/>
        <path id="Trazado_979029" data-name="Trazado 979029" d="M149.2,102.8v16.427h4.846a3.538,3.538,0,1,1,6.541-1.867,3.457,3.457,0,0,1-.538,1.867h5.579v-5.716a3.016,3.016,0,0,0,1.329.3,3.082,3.082,0,1,0-1.329-5.865V102.8Z" transform="translate(-134.216 -96.861)" fill="#fdb614" fill-rule="evenodd"/>
        <path id="Trazado_979030" data-name="Trazado 979030" d="M326.871,334.127V317.7h-4.708a4.106,4.106,0,0,1,.607,2.165,4.193,4.193,0,0,1-8.385,0,4.106,4.106,0,0,1,.607-2.165h-4.548v5.7a3.468,3.468,0,0,0-1.615-.389,3.534,3.534,0,0,0,0,7.068,3.468,3.468,0,0,0,1.615-.389v4.433Z" transform="translate(-272.434 -287.143)" fill="#f6851f" fill-rule="evenodd"/>
        <path id="Trazado_979031" data-name="Trazado 979031" d="M206.9,292.334V275.907h4.846a3.457,3.457,0,0,1-.538-1.867,3.534,3.534,0,1,1,7.068,0,3.457,3.457,0,0,1-.538,1.867h5.579v5.7a3.468,3.468,0,0,0-1.615-.389,3.534,3.534,0,0,0,0,7.068,3.468,3.468,0,0,0,1.615-.389v4.433Z" transform="translate(-185.306 -245.35)" fill="#76cedb" fill-rule="evenodd"/>
        <path id="Trazado_979032" data-name="Trazado 979032" d="M77.3,60.053V56.9h9.806a76.5,76.5,0,0,0-6.152-5.281c-1.191-.79-1.524-.9-3.322-.218-3.975,1.5-5.178,2.761-9.634,3.162v7.675a51.2,51.2,0,0,1,7.206,2.177,61.469,61.469,0,0,0,7.354-.825c2.761-.332,2.5-3.551-.092-3.551C80.212,60.053,79.559,60.053,77.3,60.053Z" transform="translate(-62.318 -50.952)" fill="#fad1a2" fill-rule="evenodd"/>
        <path id="Trazado_979033" data-name="Trazado 979033" d="M44.2,70h2.726V80.218H44.2Z" transform="translate(-41.244 -67.818)" fill="#fff" fill-rule="evenodd"/>
        <path id="Trazado_979034" data-name="Trazado 979034" d="M18.4,60h2.956V72.509H18.4Z" transform="translate(-18.4 -58.963)" fill="#dd6e42" fill-rule="evenodd"/>
        <path id="Trazado_979035" data-name="Trazado 979035" d="M415.1,217.23v.9h5.212v-.9c0-1.008-1.8.034-1.065-2.555l-.71-2.451c1.042-.619.951-1.993.951-3.024h-3.551c0,1.031-.092,2.406.951,3.024l-.71,2.451C416.91,217.253,415.1,216.222,415.1,217.23Z" transform="translate(-369.656 -191.072)" fill="#e6e6e6" fill-rule="evenodd"/>
        <path id="Trazado_979036" data-name="Trazado 979036" d="M237.2,360.93v.9h5.212v-.9c0-1.008-1.8.034-1.065-2.555l-.71-2.451c1.042-.619.951-1.993.951-3.024h-3.551c0,1.031-.092,2.406.951,3.024l-.71,2.451C239,360.965,237.2,359.922,237.2,360.93Z" transform="translate(-212.135 -318.31)" fill="#e6e6e6" fill-rule="evenodd"/>
      </g>
      <path id="Trazado_979037" data-name="Trazado 979037" d="M39.352,80.331a.544.544,0,0,1,1.088,0v.538h.836v-.538a.544.544,0,0,1,1.088,0v.538H43.2v-.538a.544.544,0,0,1,1.088,0v.928a.537.537,0,0,1-.149.378h0c-.069.137.263,2.016-.871,3l.6,2.062a.546.546,0,0,1,.011.332c-.321,1.146-.046,1.249.206,1.34.458.172.882.321.882,1.077v.9a.548.548,0,0,1-.538.55H39.214a.55.55,0,0,1-.55-.55v-.9c0-.756.424-.9.882-1.077.252-.092.527-.195.206-1.34a.653.653,0,0,1,0-.3l.607-2.085a3.732,3.732,0,0,1-.871-3h0a.537.537,0,0,1-.149-.378v-.939Zm.412,9.119v.367h4.124c0-.458.057-.332-.172-.412-.664-.241-1.443-.527-.928-2.5l-.664-2.314a.54.54,0,0,1,.252-.619c.619-.367.687-1.226.687-2H40.589c.011.779.069,1.65.687,2a.537.537,0,0,1,.229.653l-.664,2.28c.515,1.97-.252,2.257-.928,2.5C39.844,89.427,39.764,89.438,39.764,89.45ZM59.731,63.87a.544.544,0,0,1,1.088,0v.538h.836V63.87a.544.544,0,0,1,1.088,0v.538h.836V63.87a.544.544,0,0,1,1.088,0V64.8a.537.537,0,0,1-.149.378h0c-.069.137.263,2.016-.871,3l.6,2.062a.546.546,0,0,1,.011.332c-.321,1.146-.046,1.249.206,1.34.458.172.882.321.882,1.077v.9a.548.548,0,0,1-.538.55H59.594a.55.55,0,0,1-.55-.55v-.9c0-.756.424-.9.882-1.077.252-.092.527-.195.206-1.34a.653.653,0,0,1,0-.3l.607-2.085a3.732,3.732,0,0,1-.871-3h0a.537.537,0,0,1-.149-.378V63.87Zm.412,9.119v.367h4.124c0-.458.057-.332-.172-.412-.664-.241-1.443-.527-.928-2.5L62.5,68.131a.54.54,0,0,1,.252-.619c.619-.367.687-1.226.687-2H60.968c.011.779.069,1.65.687,2a.537.537,0,0,1,.229.653l-.664,2.28c.515,1.97-.252,2.257-.928,2.5a.365.365,0,0,0-.149.046ZM13.6,60.364v-12.5a.54.54,0,0,1,.55-.538h2.956a.548.548,0,0,1,.55.538v.607h2.177a.538.538,0,0,1,.538.538v.836a17.057,17.057,0,0,0,5.854-1.776c.882-.4,1.844-.848,3.036-1.294a4.716,4.716,0,0,1,2.142-.47,3.552,3.552,0,0,1,1.684.756A47.6,47.6,0,0,1,37.771,51c.458.412.916.836,1.375,1.249h6.4a.538.538,0,0,1,.538.538v4.387a3.626,3.626,0,1,1,0,7.079v4.96a.538.538,0,0,1-.538.538H39.971a.539.539,0,0,1-.458-.825,2.988,2.988,0,1,0-5.407-.756c.172.6.424.768.424,1.042a.538.538,0,0,1-.538.538H29.145a.538.538,0,0,1-.538-.538V60.8c-.527.046-1.042.057-1.558.057a3.555,3.555,0,0,1-.9-.286,40.45,40.45,0,0,0-5.751-1.764v.435a.548.548,0,0,1-.538.55h-2.2v.6a.54.54,0,0,1-.55.538H14.15a.567.567,0,0,1-.55-.561ZM14.688,48.4v11.41h1.879V48.4ZM19.293,58.68V49.55H17.655v9.13ZM37.53,52.231a53.6,53.6,0,0,0-5.04-4.284,2.767,2.767,0,0,0-1.18-.573,3.989,3.989,0,0,0-1.65.412c-3.586,1.363-5.144,2.692-9.279,3.15v6.747a43.693,43.693,0,0,1,6.129,1.856c.355.137.493.218.527.218a62.438,62.438,0,0,0,7.286-.813c2.073-.252,1.9-2.463-.034-2.463H29.134a.538.538,0,0,1-.538-.538v-3.15a.538.538,0,0,1,.538-.538h8.4Zm-7.847,3.15H34.3c3.265,0,3.6,4.216.16,4.628-1.581.195-3.185.481-4.777.653v7.984H33.12a4.082,4.082,0,1,1,7.721,0h4.181V63.469a.546.546,0,0,1,.825-.47,2.535,2.535,0,1,0-.046-4.594.548.548,0,0,1-.779-.493V53.308H29.683Zm5.522,38.433V77.387a.538.538,0,0,1,.538-.538H39.73a4.082,4.082,0,1,1,7.721,0h4.181V71.671a.54.54,0,0,1,.813-.47,2.535,2.535,0,1,0-.046-4.594.548.548,0,0,1-.779-.493V60.971a.538.538,0,0,1,.538-.538H68.586a.538.538,0,0,1,.538.538V93.826a.538.538,0,0,1-.538.538H35.743a.555.555,0,0,1-.538-.55Zm1.088-15.877V93.276H51.632V90.183a4.079,4.079,0,1,1,0-7.87V77.937h-5.04a.539.539,0,0,1-.458-.825,2.988,2.988,0,1,0-5.407-.756c.172.6.424.756.424,1.042a.538.538,0,0,1-.538.538ZM68.048,93.264V77.937H64.737a4.733,4.733,0,1,1-8.889,0H52.709V83.1a.547.547,0,0,1-.825.47,2.907,2.907,0,0,0-1.329-.309,2.989,2.989,0,1,0,1.363,5.648.547.547,0,0,1,.79.481v3.883H68.048Zm0-16.416V61.51H52.709v3.838a3.626,3.626,0,1,1,0,7.079v4.422h4a.54.54,0,0,1,.458.825,3.647,3.647,0,1,0,6.633.9,3.426,3.426,0,0,0-.367-.871.538.538,0,0,1,.435-.859Z"/>
    </g>
  </g>
</svg>
