<svg xmlns="http://www.w3.org/2000/svg" xmlns:xlink="http://www.w3.org/1999/xlink" width="108" height="108" viewBox="0 0 108 108">
  <defs>
    <filter id="Trazado_904820" x="0" y="0" width="108" height="108" filterUnits="userSpaceOnUse">
      <feOffset dy="3" input="SourceAlpha"/>
      <feGaussianBlur stdDeviation="3" result="blur"/>
      <feFlood flood-opacity="0.161"/>
      <feComposite operator="in" in2="blur"/>
      <feComposite in="SourceGraphic"/>
    </filter>
  </defs>
  <g id="Grupo_1144103" data-name="Grupo 1144103" transform="translate(-201 -1780)">
    <g transform="matrix(1, 0, 0, 1, 201, 1780)" filter="url(#Trazado_904820)">
      <g id="Trazado_904820-2" data-name="Trazado 904820" transform="translate(9 6)" fill="#ecf4fa">
        <path d="M 45 88.5 C 39.12687683105469 88.5 33.43022537231445 87.35007476806641 28.06830024719238 85.08217620849609 C 22.88852500915527 82.89131164550781 18.23629951477051 79.75458526611328 14.2408504486084 75.75914764404297 C 10.24541282653809 71.76370239257812 7.108687400817871 67.11147308349609 4.917825222015381 61.93170166015625 C 2.649924993515015 56.56977462768555 1.5 50.87312316894531 1.5 45 C 1.5 39.12687683105469 2.649924993515015 33.43022537231445 4.917825222015381 28.06830024719238 C 7.108687400817871 22.88852500915527 10.24541282653809 18.23629951477051 14.2408504486084 14.2408504486084 C 18.23629951477051 10.24541282653809 22.88852500915527 7.108687400817871 28.06830024719238 4.917825222015381 C 33.43022537231445 2.649924993515015 39.12687683105469 1.5 45 1.5 C 50.87312316894531 1.5 56.56977462768555 2.649924993515015 61.93170166015625 4.917825222015381 C 67.11147308349609 7.108687400817871 71.76370239257812 10.24541282653809 75.75914764404297 14.2408504486084 C 79.75458526611328 18.23629951477051 82.89131164550781 22.88852500915527 85.08217620849609 28.06830024719238 C 87.35007476806641 33.43022537231445 88.5 39.12687683105469 88.5 45 C 88.5 50.87312316894531 87.35007476806641 56.56977462768555 85.08217620849609 61.93170166015625 C 82.89131164550781 67.11147308349609 79.75458526611328 71.76370239257812 75.75914764404297 75.75914764404297 C 71.76370239257812 79.75458526611328 67.11147308349609 82.89131164550781 61.93170166015625 85.08217620849609 C 56.56977462768555 87.35007476806641 50.87312316894531 88.5 45 88.5 Z" stroke="none"/>
        <path d="M 45 3 C 39.32871246337891 3 33.82865524291992 4.110054016113281 28.65262985229492 6.299339294433594 C 23.65165710449219 8.414573669433594 19.15968322753906 11.44334411621094 15.301513671875 15.301513671875 C 11.44334411621094 19.15968322753906 8.414573669433594 23.65165710449219 6.299339294433594 28.65262985229492 C 4.110054016113281 33.82865524291992 3 39.32871246337891 3 45 C 3 50.67128753662109 4.110054016113281 56.17134475708008 6.299339294433594 61.34737396240234 C 8.414573669433594 66.34834289550781 11.44334411621094 70.84031677246094 15.301513671875 74.698486328125 C 19.15968322753906 78.55665588378906 23.65165710449219 81.58542633056641 28.65262985229492 83.70066070556641 C 33.82865524291992 85.88994598388672 39.32871246337891 87 45 87 C 50.67128753662109 87 56.17134475708008 85.88994598388672 61.34737396240234 83.70066070556641 C 66.34834289550781 81.58542633056641 70.84031677246094 78.55665588378906 74.698486328125 74.698486328125 C 78.55665588378906 70.84031677246094 81.58542633056641 66.34834289550781 83.70066070556641 61.34737396240234 C 85.88994598388672 56.17134475708008 87 50.67128753662109 87 45 C 87 39.32871246337891 85.88994598388672 33.82865524291992 83.70066070556641 28.65262985229492 C 81.58542633056641 23.65165710449219 78.55665588378906 19.15968322753906 74.698486328125 15.301513671875 C 70.84031677246094 11.44334411621094 66.34834289550781 8.414573669433594 61.34737396240234 6.299339294433594 C 56.17134475708008 4.110054016113281 50.67128753662109 3 45 3 M 45 0 C 69.85281372070312 0 90 20.14718627929688 90 45 C 90 69.85281372070312 69.85281372070312 90 45 90 C 20.14718627929688 90 0 69.85281372070312 0 45 C 0 20.14718627929688 20.14718627929688 0 45 0 Z" stroke="none" fill="#2a5673"/>
      </g>
    </g>
    <g id="layer2" transform="translate(225.471 1797.471)">
      <path id="path6751" d="M53.959,5.821a2.894,2.894,0,0,1,2.9,2.9v31.9a2.894,2.894,0,0,1-2.9,2.9H4.176a3.42,3.42,0,0,1-3.36-3.142C.813,27.754.794,18.388.794,5.821" transform="translate(0.703 14.042)" fill="#e4eff8"/>
      <path id="path6753" d="M56.7,40.533a2.894,2.894,0,0,1-2.9,2.9H4.014A3.534,3.534,0,0,1,.855,41.247a3.22,3.22,0,0,0,1.225.253H51.864a2.894,2.894,0,0,0,2.9-2.9V6.686a2.876,2.876,0,0,0-.134-.833A2.884,2.884,0,0,1,56.7,8.62Z" transform="translate(0.865 14.129)" fill="#c4dcf0"/>
      <path id="path6755" d="M.794,7.835a3.867,3.867,0,0,1,7.733,0V38.769a2.894,2.894,0,0,1-2.9,2.9H4.177A3.376,3.376,0,0,0,.794,45.052Z" transform="translate(0.702 9.127)" fill="#549ad4"/>
      <path id="path6757" d="M8.527,38.524a2.894,2.894,0,0,1-2.9,2.9H4.177A3.376,3.376,0,0,0,.794,44.807V39.824a3.367,3.367,0,0,1,1.45-.334h1.45a2.894,2.894,0,0,0,2.9-2.9V5.649a3.857,3.857,0,0,0-.346-1.588A3.853,3.853,0,0,1,8.527,7.582Z" transform="translate(0.702 9.372)" fill="#3588cb"/>
      <path id="path6759" d="M13.656,12.517a1.933,1.933,0,1,1-1.933-1.933A1.933,1.933,0,0,1,13.656,12.517Z" transform="translate(24.573 26.679)" fill="#ff5151"/>
      <path id="path6761" d="M27.169,12.394a11.6,11.6,0,1,1-11.6-11.6A11.6,11.6,0,0,1,27.169,12.394Z" transform="translate(9.127 0.702)" fill="#ffca28"/>
      <path id="path6763" d="M13.738.794a11.6,11.6,0,0,0-9.079,4.4A11.589,11.589,0,0,1,20.884,21.526,11.6,11.6,0,0,0,13.738.794Z" transform="translate(10.958 0.702)" fill="#ecb200"/>
      <path id="path6765" d="M10.481,10.4A1.933,1.933,0,1,1,8.548,8.467,1.933,1.933,0,0,1,10.481,10.4Z" transform="translate(16.148 21.063)" fill="#ff5151"/>
      <path id="path6767" d="M13.667,7.408h3.867a.965.965,0,0,1,.967.967v2.9a.965.965,0,0,1-.967.967H13.667a.965.965,0,0,1-.967-.967v-2.9A.965.965,0,0,1,13.667,7.408Z" transform="translate(32.296 18.254)" fill="#549ad4"/>
      <path id="path6769" d="M13.667,7.408a.965.965,0,0,0-.967.967v2.9a.965.965,0,0,0,.967.967h3.867a.965.965,0,0,0,.967-.967v-.967H15.6a.965.965,0,0,1-.967-.967V7.408Z" transform="translate(32.296 18.254)" fill="#3588cb"/>
      <path id="path6771" d="M13.494,2.618,23.16,7.451l-9.667,3.867" transform="translate(34.402 5.543)" fill="#ff5151"/>
      <g id="Grupo_1144102" data-name="Grupo 1144102" transform="translate(22.762 8.161)">
        <path id="path6773" d="M13.494,2.618v8.7l1.933-.774V3.585Z" transform="translate(11.64 -2.618)" fill="#ff2929"/>
        <path id="path6775" d="M11.1,10.614a1.929,1.929,0,1,0,2.522,2.19,1.921,1.921,0,0,1-2.522-2.19Z" transform="translate(1.81 18.601)" fill="#ff2929"/>
        <path id="path6777" d="M7.921,8.5a1.929,1.929,0,1,0,2.522,2.19A1.921,1.921,0,0,1,7.921,8.5Z" transform="translate(-6.615 12.984)" fill="#ff2929"/>
      </g>
      <path id="path6779" d="M12.129,13.1a12.472,12.472,0,0,0,1.422,5.8H10.2V16.964a4.835,4.835,0,0,0-9.67,0V54.177a4.343,4.343,0,0,0,4.354,4.352h49.78a3.865,3.865,0,0,0,3.867-3.867v-31.9A3.858,3.858,0,0,0,54.662,18.9h-5.8V17.514l9.063-3.625a.967.967,0,0,0,.072-1.756L48.86,7.562V7.294a.967.967,0,1,0-1.933,0V18.9H35.835a12.564,12.564,0,1,0-23.706-5.8ZM47.883.529a.967.967,0,0,0-.955.978v.97a.967.967,0,0,0,1.933,0v-.97a.966.966,0,0,0-.978-.978ZM24.7,2.464A10.631,10.631,0,1,1,14.063,13.1,10.635,10.635,0,0,1,24.7,2.464ZM42.66,4.439l.683.685a.969.969,0,0,0,1.371-1.369l-.685-.685a.921.921,0,0,0-.675-.282A.965.965,0,0,0,42.66,4.439Zm9.112-1.369-.685.685a.969.969,0,0,0,1.371,1.369l.685-.685a.969.969,0,0,0-.717-1.65.928.928,0,0,0-.653.281ZM23.727,6.331V13.1a.967.967,0,0,0,.287.685l2.9,2.9a.967.967,0,0,0,1.371-1.363L25.662,12.7V6.331a.968.968,0,0,0-1.935,0Zm25.133,3.4L55.2,12.9l-6.344,2.537Zm-43.5,4.331a2.9,2.9,0,0,1,2.9,2.906V47.9a1.935,1.935,0,0,1-1.933,1.933H4.883a4.345,4.345,0,0,0-2.419.723V16.965a2.9,2.9,0,0,1,2.9-2.906ZM10.2,20.831h4.592a12.57,12.57,0,0,0,19.811,0H46.927V24.7h-.963a1.928,1.928,0,0,0-1.935,1.933v2.9a.969.969,0,1,0,0,1.935h1.88l-7.639,5.609a2.894,2.894,0,0,0-3.9-.043l-6.844-4.937a2.836,2.836,0,0,0,.074-.629,2.9,2.9,0,1,0-5.8,0,2.81,2.81,0,0,0,.1.717L12.5,39.4a.967.967,0,1,0,1.186,1.527l9.281-7.133a2.908,2.908,0,0,0,3.523-.053l6.938,5a3.166,3.166,0,0,0-.033.459,2.9,2.9,0,0,0,5.8,0,2.713,2.713,0,0,0-.029-.387l10-7.348h2.589a.968.968,0,0,0,0-1.935v-2.9A1.936,1.936,0,0,0,49.832,24.7h-.97V20.831h5.8A1.922,1.922,0,0,1,56.6,22.764v31.9A1.927,1.927,0,0,1,54.663,56.6H4.883a2.416,2.416,0,1,1,0-4.831H6.332A3.868,3.868,0,0,0,10.2,47.9Zm24.161,5.794a.972.972,0,0,0-.685,1.656l.768.765-.768.768a.967.967,0,0,0,1.371,1.363l.765-.765.768.765a.964.964,0,1,0,1.363-1.363l-.765-.768.765-.765a.966.966,0,0,0-.691-1.656.976.976,0,0,0-.672.285l-.768.768-.765-.768a.942.942,0,0,0-.685-.285Zm11.6.008h3.867v2.9H45.965ZM24.7,30.492a.971.971,0,0,1,.963.972.96.96,0,0,1-.963.963.968.968,0,1,1,0-1.935Zm24.169,5.8a.965.965,0,0,0-.693,1.648l.768.768-.768.767a.969.969,0,1,0,1.371,1.371l.765-.768.768.768a.967.967,0,0,0,1.363-1.371l-.759-.767.767-.768a.966.966,0,0,0-.714-1.648.941.941,0,0,0-.657.285l-.768.767-.765-.767a.925.925,0,0,0-.678-.285ZM36.294,38.228a.968.968,0,1,1-.963.972A.97.97,0,0,1,36.294,38.228ZM17.92,42.089a.966.966,0,0,0-.529.164l-2.9,1.933a.968.968,0,1,0,1.07,1.614l2.362-1.578L20.3,45.8a.967.967,0,0,0,1.069,0l2.362-1.578L26.091,45.8a.967.967,0,0,0,1.076,0l2.362-1.578L31.891,45.8a.968.968,0,1,0,1.071-1.614l-2.9-1.933a.967.967,0,0,0-1.07,0l-2.362,1.576-2.369-1.577a.967.967,0,0,0-1.071,0l-2.362,1.577-2.369-1.577a.966.966,0,0,0-.542-.164ZM42.1,45.963a.967.967,0,1,0,0,1.933h.967a.967.967,0,1,0,0-1.933Zm4.833,0a.967.967,0,1,0,0,1.933H47.9a.967.967,0,1,0,0-1.933Zm4.833,0a.967.967,0,1,0,0,1.933h.967a.967.967,0,1,0,0-1.933Zm-33.843.965a.966.966,0,0,0-.529.164l-2.9,1.926a.968.968,0,1,0,1.07,1.612l2.362-1.577L20.3,50.63a.967.967,0,0,0,1.069,0l2.362-1.577,2.364,1.577a.967.967,0,0,0,1.076,0l2.362-1.577,2.362,1.577a.968.968,0,1,0,1.071-1.612l-2.9-1.926a.967.967,0,0,0-1.07,0l-2.362,1.569-2.369-1.569a.967.967,0,0,0-1.071,0l-2.362,1.569-2.369-1.569a.967.967,0,0,0-.542-.164Z"/>
    </g>
  </g>
</svg>
