<svg xmlns="http://www.w3.org/2000/svg" width="47.215" height="41.313" viewBox="0 0 47.215 41.313">
  <path id="Icon_awesome-quote-right" data-name="Icon awesome-quote-right" d="M4.426,41.313h11.8a4.428,4.428,0,0,0,4.426-4.426v-11.8a4.428,4.428,0,0,0-4.426-4.426H8.853v-5.9a5.907,5.907,0,0,1,5.9-5.9h.738A2.208,2.208,0,0,0,17.706,6.64V2.213A2.208,2.208,0,0,0,15.492,0h-.738A14.751,14.751,0,0,0,0,14.755V36.887A4.428,4.428,0,0,0,4.426,41.313Zm26.558,0h11.8a4.428,4.428,0,0,0,4.426-4.426v-11.8a4.428,4.428,0,0,0-4.426-4.426H35.411v-5.9a5.907,5.907,0,0,1,5.9-5.9h.738A2.208,2.208,0,0,0,44.264,6.64V2.213A2.208,2.208,0,0,0,42.051,0h-.738A14.751,14.751,0,0,0,26.558,14.755V36.887A4.428,4.428,0,0,0,30.985,41.313Z" fill="#fe8953"/>
</svg>
