<svg xmlns="http://www.w3.org/2000/svg" xmlns:xlink="http://www.w3.org/1999/xlink" width="108" height="108" viewBox="0 0 108 108">
  <defs>
    <filter id="Trazado_904820" x="0" y="0" width="108" height="108" filterUnits="userSpaceOnUse">
      <feOffset dy="3" input="SourceAlpha"/>
      <feGaussianBlur stdDeviation="3" result="blur"/>
      <feFlood flood-opacity="0.161"/>
      <feComposite operator="in" in2="blur"/>
      <feComposite in="SourceGraphic"/>
    </filter>
  </defs>
  <g id="Grupo_1144149" data-name="Grupo 1144149" transform="translate(-201 -975)">
    <g transform="matrix(1, 0, 0, 1, 201, 975)" filter="url(#Trazado_904820)">
      <g id="Trazado_904820-2" data-name="Trazado 904820" transform="translate(9 6)" fill="#ecf4fa">
        <path d="M 45 88.5 C 39.12687683105469 88.5 33.43022537231445 87.35007476806641 28.06830024719238 85.08217620849609 C 22.88852500915527 82.89131164550781 18.23629951477051 79.75458526611328 14.2408504486084 75.75914764404297 C 10.24541282653809 71.76370239257812 7.108687400817871 67.11147308349609 4.917825222015381 61.93170166015625 C 2.649924993515015 56.56977462768555 1.5 50.87312316894531 1.5 45 C 1.5 39.12687683105469 2.649924993515015 33.43022537231445 4.917825222015381 28.06830024719238 C 7.108687400817871 22.88852500915527 10.24541282653809 18.23629951477051 14.2408504486084 14.2408504486084 C 18.23629951477051 10.24541282653809 22.88852500915527 7.108687400817871 28.06830024719238 4.917825222015381 C 33.43022537231445 2.649924993515015 39.12687683105469 1.5 45 1.5 C 50.87312316894531 1.5 56.56977462768555 2.649924993515015 61.93170166015625 4.917825222015381 C 67.11147308349609 7.108687400817871 71.76370239257812 10.24541282653809 75.75914764404297 14.2408504486084 C 79.75458526611328 18.23629951477051 82.89131164550781 22.88852500915527 85.08217620849609 28.06830024719238 C 87.35007476806641 33.43022537231445 88.5 39.12687683105469 88.5 45 C 88.5 50.87312316894531 87.35007476806641 56.56977462768555 85.08217620849609 61.93170166015625 C 82.89131164550781 67.11147308349609 79.75458526611328 71.76370239257812 75.75914764404297 75.75914764404297 C 71.76370239257812 79.75458526611328 67.11147308349609 82.89131164550781 61.93170166015625 85.08217620849609 C 56.56977462768555 87.35007476806641 50.87312316894531 88.5 45 88.5 Z" stroke="none"/>
        <path d="M 45 3 C 39.32871246337891 3 33.82865524291992 4.110054016113281 28.65262985229492 6.299339294433594 C 23.65165710449219 8.414573669433594 19.15968322753906 11.44334411621094 15.301513671875 15.301513671875 C 11.44334411621094 19.15968322753906 8.414573669433594 23.65165710449219 6.299339294433594 28.65262985229492 C 4.110054016113281 33.82865524291992 3 39.32871246337891 3 45 C 3 50.67128753662109 4.110054016113281 56.17134475708008 6.299339294433594 61.34737396240234 C 8.414573669433594 66.34834289550781 11.44334411621094 70.84031677246094 15.301513671875 74.698486328125 C 19.15968322753906 78.55665588378906 23.65165710449219 81.58542633056641 28.65262985229492 83.70066070556641 C 33.82865524291992 85.88994598388672 39.32871246337891 87 45 87 C 50.67128753662109 87 56.17134475708008 85.88994598388672 61.34737396240234 83.70066070556641 C 66.34834289550781 81.58542633056641 70.84031677246094 78.55665588378906 74.698486328125 74.698486328125 C 78.55665588378906 70.84031677246094 81.58542633056641 66.34834289550781 83.70066070556641 61.34737396240234 C 85.88994598388672 56.17134475708008 87 50.67128753662109 87 45 C 87 39.32871246337891 85.88994598388672 33.82865524291992 83.70066070556641 28.65262985229492 C 81.58542633056641 23.65165710449219 78.55665588378906 19.15968322753906 74.698486328125 15.301513671875 C 70.84031677246094 11.44334411621094 66.34834289550781 8.414573669433594 61.34737396240234 6.299339294433594 C 56.17134475708008 4.110054016113281 50.67128753662109 3 45 3 M 45 0 C 69.85281372070312 0 90 20.14718627929688 90 45 C 90 69.85281372070312 69.85281372070312 90 45 90 C 20.14718627929688 90 0 69.85281372070312 0 45 C 0 20.14718627929688 20.14718627929688 0 45 0 Z" stroke="none" fill="#2a5673"/>
      </g>
    </g>
    <g id="Grupo_1144148" data-name="Grupo 1144148" transform="translate(228.593 999.593)">
      <g id="Grupo_1144146" data-name="Grupo 1144146" transform="translate(0.852 0.852)">
        <g id="Grupo_1144125" data-name="Grupo 1144125" transform="translate(28.75 6.815)">
          <path id="Trazado_978992" data-name="Trazado 978992" d="M57.111,9.852V50.741a.854.854,0,0,1-.852.852H34.75l1.278-3.407H48.593L53.7,43.074V12.407H46.991a8.691,8.691,0,0,0,1.55-3.2l.051-.2h7.667A.854.854,0,0,1,57.111,9.852Z" transform="translate(-34.75 -9)" fill="#cf9e76"/>
        </g>
        <g id="Grupo_1144126" data-name="Grupo 1144126" transform="translate(17.037 6.815)">
          <path id="Trazado_978993" data-name="Trazado 978993" d="M31.12,12.407H24.407V32.554l-3.407.8V9.852A.854.854,0,0,1,21.852,9h7.667l.051.2a8.692,8.692,0,0,0,1.55,3.2Z" transform="translate(-21 -9)" fill="#cf9e76"/>
        </g>
        <g id="Grupo_1144127" data-name="Grupo 1144127" transform="translate(20.444 10.222)">
          <path id="Trazado_978994" data-name="Trazado 978994" d="M35.222,47.074V41.963a1.716,1.716,0,0,0,1.7,1.7,1.709,1.709,0,0,0,1.7-1.7V35.148a3.406,3.406,0,0,0-3.407-3.407V24.926a1.709,1.709,0,0,0-1.7-1.7H30.111a1.709,1.709,0,0,0-1.7,1.7v7.42l-3.407.8V13h6.713a8.732,8.732,0,0,0,13.834,0h6.713V43.667H47.148v5.111H34.583Z" transform="translate(-25 -13)" fill="#e6e9ed"/>
        </g>
        <g id="Grupo_1144128" data-name="Grupo 1144128" transform="translate(28.963)">
          <path id="Trazado_978995" data-name="Trazado 978995" d="M45.222,6.111v1.7H41.815v-1.7a1.716,1.716,0,0,0-1.7-1.7,1.709,1.709,0,0,0-1.7,1.7v1.7H35v-1.7A5.115,5.115,0,0,1,40.111,1a5.119,5.119,0,0,1,5.111,5.111Z" transform="translate(-35 -1)" fill="#fcd770"/>
        </g>
        <g id="Grupo_1144129" data-name="Grupo 1144129" transform="translate(25.556 6.815)">
          <path id="Trazado_978996" data-name="Trazado 978996" d="M48.037,9l-.051.2a8.729,8.729,0,0,1-16.935,0L31,9H48.037Z" transform="translate(-31 -9)" fill="#ffeaa7"/>
        </g>
        <g id="Grupo_1144130" data-name="Grupo 1144130" transform="translate(0 5.111)">
          <path id="Trazado_978997" data-name="Trazado 978997" d="M18.037,29.7a11.8,11.8,0,0,1-5.111,1.15,11.148,11.148,0,0,1-1.516-.1A11.923,11.923,0,1,1,19.068,8.7h-.179a.854.854,0,0,0-.852.852v2.556a8.519,8.519,0,1,0,0,13.63Z" transform="translate(-1 -7)" fill="#ccd1d9"/>
        </g>
        <g id="Grupo_1144131" data-name="Grupo 1144131" transform="translate(3.407 8.519)">
          <path id="Trazado_978998" data-name="Trazado 978998" d="M13.519,11a8.456,8.456,0,0,1,5.111,1.7v13.63A8.518,8.518,0,1,1,13.519,11Z" transform="translate(-5 -11)" fill="#69d6f4"/>
        </g>
        <g id="Grupo_1144132" data-name="Grupo 1144132" transform="translate(6.815 28.963)">
          <path id="Trazado_978999" data-name="Trazado 978999" d="M14.111,38.407v8.519a1.709,1.709,0,0,1-1.7,1.7H10.7a1.709,1.709,0,0,1-1.7-1.7V36.7A1.709,1.709,0,0,1,10.7,35h1.7a1.086,1.086,0,0,1,.17.009,1.708,1.708,0,0,1,1.533,1.7Z" transform="translate(-9 -35)" fill="#fcd770"/>
        </g>
        <g id="Grupo_1144133" data-name="Grupo 1144133" transform="translate(0 28.963)">
          <path id="Trazado_979000" data-name="Trazado 979000" d="M7.815,36.7V46.926a1.709,1.709,0,0,1-1.7,1.7H2.7a1.709,1.709,0,0,1-1.7-1.7V36.7A1.709,1.709,0,0,1,2.7,35H6.111A1.709,1.709,0,0,1,7.815,36.7Z" transform="translate(-1 -35)" fill="#fcd770"/>
        </g>
        <g id="Grupo_1144134" data-name="Grupo 1144134" transform="translate(23.852 44.296)">
          <path id="Trazado_979001" data-name="Trazado 979001" d="M35.815,53l-.639,1.7L33.9,58.111l-.341.9a1.226,1.226,0,0,1-2.3,0L29,53h6.815Z" transform="translate(-29 -53)" fill="#aab2bd"/>
        </g>
        <g id="Grupo_1144135" data-name="Grupo 1144135" transform="translate(23.852 20.444)">
          <path id="Trazado_979002" data-name="Trazado 979002" d="M34.111,25H30.7A1.709,1.709,0,0,0,29,26.7v5.111h6.815V26.7A1.709,1.709,0,0,0,34.111,25Z" transform="translate(-29 -25)" fill="#aab2bd"/>
        </g>
        <g id="Grupo_1144136" data-name="Grupo 1144136" transform="translate(30.667 28.963)">
          <path id="Trazado_979003" data-name="Trazado 979003" d="M40.407,38.407v6.815a1.709,1.709,0,0,1-1.7,1.7,1.716,1.716,0,0,1-1.7-1.7V35A3.406,3.406,0,0,1,40.407,38.407Z" transform="translate(-37 -35)" fill="#f0d0b4"/>
        </g>
        <g id="Grupo_1144137" data-name="Grupo 1144137" transform="translate(11.926 29.568)">
          <path id="Trazado_979004" data-name="Trazado 979004" d="M30.333,39.075l.383-.256a1.921,1.921,0,0,1,1.031-.307A1.844,1.844,0,0,1,33.4,39.535l.009.017a3.1,3.1,0,0,1,.332,1.406,3.148,3.148,0,0,1-1.567,2.726l-1.84,1.073L26.926,46.75l-1.951,1.133a6.176,6.176,0,0,1-3.143.852,6.052,6.052,0,0,1-1.7-.239L15,47.031V38.513l5.111-1.2,3.407-.8,3.407-.8v5.605q.217-.115.434-.256Z" transform="translate(-15 -35.71)" fill="#f0d0b4"/>
        </g>
        <g id="Grupo_1144138" data-name="Grupo 1144138" transform="translate(37.482 27.259)">
          <path id="Trazado_979005" data-name="Trazado 979005" d="M45,33h6.815v6.815H45Z" transform="translate(-45 -33)" fill="#ff826e"/>
        </g>
        <g id="Grupo_1144139" data-name="Grupo 1144139" transform="translate(37.482 17.037)">
          <path id="Trazado_979006" data-name="Trazado 979006" d="M45,21h6.815v6.815H45Z" transform="translate(-45 -21)" fill="#ff826e"/>
        </g>
        <g id="Grupo_1144140" data-name="Grupo 1144140" transform="translate(10.222 15.333)">
          <path id="Trazado_979007" data-name="Trazado 979007" d="M15.36,19.128A1.705,1.705,0,1,1,13,20.7,1.716,1.716,0,0,1,14.7,19,1.7,1.7,0,0,1,15.36,19.128Z" transform="translate(-13 -19)" fill="#ff826e"/>
        </g>
        <g id="Grupo_1144141" data-name="Grupo 1144141" transform="translate(27.259 34.815)">
          <path id="Trazado_979008" data-name="Trazado 979008" d="M36.407,46.24v5.111H33V45.669L34.84,44.6a3.148,3.148,0,0,0,1.567-2.726Z" transform="translate(-33 -41.87)" fill="#ff826e"/>
        </g>
        <g id="Grupo_1144142" data-name="Grupo 1144142" transform="translate(27.259 27.259)">
          <path id="Trazado_979009" data-name="Trazado 979009" d="M36.407,34.7v5.852a3.1,3.1,0,0,0-.332-1.406l-.009-.017a1.844,1.844,0,0,0-1.653-1.022,1.921,1.921,0,0,0-1.031.307L33,38.673V33h3.407Z" transform="translate(-33 -33)" fill="#ff826e"/>
        </g>
        <g id="Grupo_1144143" data-name="Grupo 1144143" transform="translate(23.852 38.615)">
          <path id="Trazado_979010" data-name="Trazado 979010" d="M32.407,46.33v5.682H29V48.323Z" transform="translate(-29 -46.33)" fill="#b4dd7f"/>
        </g>
        <g id="Grupo_1144144" data-name="Grupo 1144144" transform="translate(23.852 27.259)">
          <path id="Trazado_979011" data-name="Trazado 979011" d="M32.407,33v5.673l-2.973,1.985q-.217.141-.434.256V33Z" transform="translate(-29 -33)" fill="#b4dd7f"/>
        </g>
        <g id="Grupo_1144145" data-name="Grupo 1144145" transform="translate(42.593 40.889)">
          <path id="Trazado_979012" data-name="Trazado 979012" d="M56.111,49,51,54.111V49Z" transform="translate(-51 -49)" fill="#b4dd7f"/>
        </g>
      </g>
      <g id="Grupo_1144147" data-name="Grupo 1144147">
        <path id="Trazado_979013" data-name="Trazado 979013" d="M4,56H5.7v1.7H4Z" transform="translate(-0.593 -8.296)"/>
        <path id="Trazado_979014" data-name="Trazado 979014" d="M8,56H9.7v1.7H8Z" transform="translate(-1.185 -8.296)"/>
        <path id="Trazado_979015" data-name="Trazado 979015" d="M12,56h1.7v1.7H12Z" transform="translate(-1.778 -8.296)"/>
        <path id="Trazado_979016" data-name="Trazado 979016" d="M16,56h1.7v1.7H16Z" transform="translate(-2.37 -8.296)"/>
        <path id="Trazado_979017" data-name="Trazado 979017" d="M20,56h1.7v1.7H20Z" transform="translate(-2.963 -8.296)"/>
        <path id="Trazado_979018" data-name="Trazado 979018" d="M51.111,6.815H40.889V5.963a5.963,5.963,0,1,0-11.926,0v.852H19.144A12.771,12.771,0,1,0,6.556,29.04a2.518,2.518,0,0,0-.593-.077H2.556A2.559,2.559,0,0,0,0,31.519V41.741A2.559,2.559,0,0,0,2.556,44.3H5.963a2.539,2.539,0,0,0,1.7-.664,2.535,2.535,0,0,0,1.7.664h1.7A2.554,2.554,0,0,0,13.392,42.8l4.276,1.222a7.077,7.077,0,0,0,5.511-.692l.672-.392V45.3l2.31,6.161a2.082,2.082,0,0,0,3.9,0l.132-.354H51.111a1.705,1.705,0,0,0,1.7-1.7V8.519A1.705,1.705,0,0,0,51.111,6.815ZM47.7,40.889H42.593V46H32.109l.262-.7V42.436a2.527,2.527,0,0,0,.852.157,2.559,2.559,0,0,0,2.556-2.556V33.222a4.267,4.267,0,0,0-3.407-4.173V23a2.559,2.559,0,0,0-2.556-2.556H26.407A2.559,2.559,0,0,0,23.852,23v6.742l-1.7.4V11.926h5.457a9.568,9.568,0,0,0,14.642,0H47.7Zm-1.2,1.7-2.2,2.2v-2.2ZM29.65,47.7H26.572L25.933,46h4.356Zm.733-8.574c.1-.058.19-.126.284-.192V44.3h-1.7V39.959Zm1.987-8.306a2.552,2.552,0,0,1,1.7,2.4v6.815a.852.852,0,1,1-1.7,0Zm-1.7-6.972H25.556V23a.853.853,0,0,1,.852-.852h3.407a.853.853,0,0,1,.852.852Zm-5.111,1.7h5.111v1.7H25.556Zm0,3.407h1.7v4.371l-1.7,1.136Zm3.407,0h1.7v3.662a2.6,2.6,0,0,0-1.7-.189Zm-15.5,1.666a12.653,12.653,0,0,0,3.576-.694v1.41l-3.407.8v-.628A2.535,2.535,0,0,0,13.461,30.629Zm-1.535-6.777v1.653A7.63,7.63,0,0,1,8,23.873l1.165-1.165-1.2-1.2L6.794,22.669a7.63,7.63,0,0,1-1.632-3.928H6.815v-1.7H5.161a7.63,7.63,0,0,1,1.632-3.928l1.165,1.165,1.2-1.2L8,11.9a7.63,7.63,0,0,1,3.928-1.632v1.653h1.7V10.274a7.573,7.573,0,0,1,3.407,1.245V24.258A7.573,7.573,0,0,1,13.63,25.5V23.852ZM18.741,8.519h7.022a9.581,9.581,0,0,0,.693,1.7H20.444V30.543l-1.7.4ZM34.926,13.63a7.86,7.86,0,0,1-7.369-5.111H42.295A7.858,7.858,0,0,1,34.926,13.63Zm.852-6.815h-1.7V5.963a.852.852,0,1,1,1.7,0Zm-5.111-.852a4.259,4.259,0,0,1,8.519,0v.852h-1.7V5.963a2.556,2.556,0,1,0-5.111,0v.852h-1.7ZM1.7,17.889A11.073,11.073,0,0,1,17.229,7.749a1.683,1.683,0,0,0-.192.769V9.542a9.37,9.37,0,1,0,0,16.693V28.1a10.964,10.964,0,0,1-4.259.866A11.087,11.087,0,0,1,1.7,17.889Zm5.99,11.716-.027.022c-.033-.03-.068-.057-.1-.085.044.02.086.043.13.063ZM5.963,42.593H2.556a.853.853,0,0,1-.852-.852V31.519a.853.853,0,0,1,.852-.852H5.963a.853.853,0,0,1,.852.852V41.741A.853.853,0,0,1,5.963,42.593Zm5.963-.852a.853.853,0,0,1-.852.852H9.37a.853.853,0,0,1-.852-.852V31.519a.853.853,0,0,1,.852-.852h1.7a.853.853,0,0,1,.852.852Zm10.4.12a5.432,5.432,0,0,1-4.185.526L13.63,41.1V33.9l10.222-2.4v3.983a4.271,4.271,0,0,1-1.548.3h-1.86v1.7H22.3a5.945,5.945,0,0,0,3.308-1l3.356-2.238a1.022,1.022,0,0,1,1.455.4,2.3,2.3,0,0,1-.9,3.017Zm4.937-.909V44.3h-1.7v-2.35Zm.5,9.914-.547-1.458h1.8l-.547,1.459A.394.394,0,0,1,27.758,50.866Zm23.354-1.458H30.831l.639-1.7H43.8l5.61-5.61V10.222H43.4a9.581,9.581,0,0,0,.693-1.7h7.021Z"/>
        <path id="Trazado_979019" data-name="Trazado 979019" d="M42,12h1.7v1.7H42Z" transform="translate(-6.222 -1.778)"/>
        <path id="Trazado_979020" data-name="Trazado 979020" d="M38,12h1.7v1.7H38Z" transform="translate(-5.63 -1.778)"/>
        <path id="Trazado_979021" data-name="Trazado 979021" d="M28,20H39.926v1.7H28Z" transform="translate(-4.148 -2.963)"/>
        <path id="Trazado_979022" data-name="Trazado 979022" d="M28,16h3.407v1.7H28Z" transform="translate(-4.148 -2.37)"/>
        <path id="Trazado_979023" data-name="Trazado 979023" d="M44,28.519h8.519V20H44ZM45.7,21.7h5.111v5.111H45.7Z" transform="translate(-6.518 -2.963)"/>
        <path id="Trazado_979024" data-name="Trazado 979024" d="M0,0H2.409V1.7H0Z" transform="translate(40.28 21.548) rotate(-45)"/>
        <path id="Trazado_979025" data-name="Trazado 979025" d="M44,40.519h8.519V32H44ZM45.7,33.7h5.111v5.111H45.7Z" transform="translate(-6.518 -4.741)"/>
        <path id="Trazado_979026" data-name="Trazado 979026" d="M0,0H2.409V1.7H0Z" transform="translate(40.279 31.769) rotate(-45)"/>
        <path id="Trazado_979027" data-name="Trazado 979027" d="M16.927,19.985a2.54,2.54,0,0,0-.851-1.89L17.44,14.8l-1.574-.653L14.5,17.442c-.043,0-.085-.013-.13-.013a2.514,2.514,0,0,0-1.095.256l-1.314-1.314-1.2,1.2,1.314,1.314a2.514,2.514,0,0,0-.256,1.095,2.556,2.556,0,1,0,5.111,0Zm-2.556.852a.852.852,0,1,1,.852-.852A.853.853,0,0,1,14.372,20.837Z" transform="translate(-1.594 -2.096)"/>
      </g>
    </g>
  </g>
</svg>
