<svg xmlns="http://www.w3.org/2000/svg" width="42.526" height="42.524" viewBox="0 0 42.526 42.524">
  <g id="Grupo_1144098" data-name="Grupo 1144098" transform="translate(-0.05 -0.012)">
    <path id="Trazado_978819" data-name="Trazado 978819" d="M254.077,7.329a1.294,1.294,0,0,0-1.005-.89l-4.532-.831-.831-4.532a1.3,1.3,0,0,0-2.194-.684l-6.342,6.342a1.3,1.3,0,0,0-.358,1.152l.927,5.055L231.08,21.6a1.036,1.036,0,1,0,1.466,1.466l8.661-8.661,5.056.927a1.3,1.3,0,0,0,1.152-.359l6.342-6.342a1.294,1.294,0,0,0,.321-1.3Zm-7.841,5.893-3.249-.6,2.162-2.162A1.036,1.036,0,1,0,243.683,9l-2.162,2.162-.6-3.249L245.936,2.9l.661,3.606A1.3,1.3,0,0,0,247.64,7.55l3.606.661Z" transform="translate(-211.561 0)" fill="#c63e3e"/>
    <path id="Trazado_978820" data-name="Trazado 978820" d="M87.706,97.078a1.036,1.036,0,0,0-.817-1.216,14.4,14.4,0,1,0,11.346,11.346,1.036,1.036,0,1,0-2.034.4A12.33,12.33,0,1,1,86.49,97.9,1.036,1.036,0,0,0,87.706,97.078Z" transform="translate(-63.873 -87.638)" fill="#c63e3e"/>
    <path id="Trazado_978821" data-name="Trazado 978821" d="M38.7,40.352a1.036,1.036,0,0,0-.778,1.242A18.133,18.133,0,1,1,24.344,28a1.036,1.036,0,1,0,.466-2.019A20.21,20.21,0,1,0,39.944,41.131,1.036,1.036,0,0,0,38.7,40.352Z" transform="translate(0 -23.33)" fill="#c63e3e"/>
    <path id="Trazado_978822" data-name="Trazado 978822" d="M150.009,169.019a1.036,1.036,0,0,0,.207-2.062,8.481,8.481,0,1,0,7.584,7.557,1.036,1.036,0,0,0-2.061.214,6.409,6.409,0,1,1-5.729-5.709Z" transform="translate(-129.135 -153.038)" fill="#c63e3e"/>
  </g>
</svg>
